<svg width="16" height="19" viewBox="0 0 16 19" fill="none" xmlns="http://www.w3.org/2000/svg">
<path d="M1.41176 18.8235C1.03529 18.8235 0.705882 18.6824 0.423529 18.4C0.141177 18.1176 0 17.7882 0 17.4118V3.22353H1.41176V17.4118H12.5647V18.8235H1.41176ZM4.23529 16C3.85882 16 3.52941 15.8588 3.24706 15.5765C2.96471 15.2941 2.82353 14.9647 2.82353 14.5882V1.41176C2.82353 1.03529 2.96471 0.705882 3.24706 0.423529C3.52941 0.141176 3.85882 0 4.23529 0H14.5882C14.9647 0 15.2941 0.141176 15.5765 0.423529C15.8588 0.705882 16 1.03529 16 1.41176V14.5882C16 14.9647 15.8588 15.2941 15.5765 15.5765C15.2941 15.8588 14.9647 16 14.5882 16H4.23529ZM4.23529 14.5882H14.5882V1.41176H4.23529V14.5882ZM4.23529 14.5882V1.41176V14.5882Z" fill="#342295"/>
</svg>
